<svg width="150" height="150" viewBox="0 0 150 150" fill="none" xmlns="http://www.w3.org/2000/svg">
<path d="M60.2823 20.7797C60.2823 20.7797 51.5942 13.7371 52.5149 4.74345C44.8976 8.72409 40.6619 26.3694 48.8394 34.2484C41.1032 38.6277 23.7246 56.0653 26.4736 57.8564C29.2225 59.6474 34.9009 56.0092 34.9009 56.0092C34.9009 56.0092 32.0088 59.5432 29.3672 62.1784C26.7256 64.8136 23.5026 72.6361 27.1717 72.6361C30.8407 72.6361 18.971 81.1823 15.7548 87.5297C12.5385 93.8772 10.3861 105.281 13.5533 106.939C16.7205 108.597 21.2165 99.3745 24.9685 96.8624C28.7206 94.3502 22.7654 106.55 24.9685 110.52C27.1717 114.491 31.914 104.075 31.914 104.075C31.914 104.075 30.128 115.4 31.914 118.158C33.6999 120.916 38.7846 120.838 38.7846 120.838C38.7846 120.838 39.7642 125.478 44.8844 131.382C44.8956 137.633 44.8956 141.81 48.8394 143.792C52.7833 145.774 63.2698 146.216 67.6859 145.138C72.1021 144.059 70.6014 137.633 70.6014 137.633H77.414C77.414 137.633 75.4759 144.441 82.0209 145.138C88.5658 145.835 94.4339 145.835 98.2542 144.453C102.075 143.07 103.644 131.382 103.644 131.382C103.644 131.382 108.551 125.843 109.716 123.207C110.955 125.478 115.77 127.139 117.78 123.207C119.79 119.275 120.796 111.3 120.796 106.939C120.796 102.578 122.736 114.97 125.497 111.701C128.258 108.432 125.497 103.007 125.497 103.007C125.497 103.007 129.665 114.102 135.026 110.52C140.387 106.939 140.387 95.6366 130.152 84.3716C119.918 73.1065 123.143 72.435 120.796 69.5112C118.448 66.5874 125.795 71.1738 124.231 65.2898C122.667 59.4057 112.317 53.6634 112.317 51.0104C112.317 48.3573 119.869 59.4086 121.717 53.883C123.565 48.3573 108.52 34.2484 108.52 34.2484C108.52 34.2484 118.046 30.8389 116.743 20.7797C115.44 10.7204 108.52 4.74345 108.52 4.74345C108.52 4.74345 108.52 20.7797 97.2787 22.2262C94.8258 19.9113 95.0392 16.2442 92.6811 16.2442C90.3231 16.2442 87.6604 13.7371 87.6604 13.7371C87.6604 13.7371 88.5177 13.0811 89.6519 10.6725C90.7861 8.26386 82.0209 10.6725 82.0209 10.6725C82.0209 10.6725 81.9642 7.07908 84.8123 5.91126C87.6604 4.74345 82.8168 2.26779 75.2913 5.91126C67.7658 9.55474 60.2823 20.7797 60.2823 20.7797Z" fill="url(#paint0_linear_0_19)"/>
<path d="M75 112C86.598 112 96 107.848 96 102.726C96 97.6038 86.598 89 75 89C63.402 89 54 97.6038 54 102.726C54 107.848 63.402 112 75 112Z" fill="black"/>
<mask id="mask0_0_19" style="mask-type:alpha" maskUnits="userSpaceOnUse" x="54" y="89" width="42" height="23">
<path d="M75 112C86.598 112 96 107.848 96 102.726C96 97.6038 86.598 89 75 89C63.402 89 54 97.6038 54 102.726C54 107.848 63.402 112 75 112Z" fill="white"/>
</mask>
<g mask="url(#mask0_0_19)">
<rect x="66.9179" y="88" width="7" height="10" fill="white"/>
<rect x="75.9179" y="88" width="7" height="10" fill="white"/>
<path d="M60 109.029C62.2734 105.41 66.3284 103 70.9521 103C72.553 103 74.0858 103.289 75.5 103.817C76.9142 103.289 78.447 103 80.0479 103C84.6716 103 88.7266 105.41 91 109.029C87.1271 110.857 81.6156 112 75.5 112C69.3844 112 63.8729 110.857 60 109.029H60Z" fill="#F34D4D"/>
</g>
<path d="M81 60.739C82.2992 68.2706 88.8638 74 96.7665 74C105.603 74 112.766 66.8366 112.766 58C112.766 52.4984 109.99 47.6454 105.761 44.7659C100.48 53.3664 91.48 59.4374 81 60.739Z" fill="white"/>
<mask id="mask1_0_19" style="mask-type:alpha" maskUnits="userSpaceOnUse" x="81" y="44" width="32" height="30">
<path d="M81 60.739C82.2992 68.2706 88.8638 74 96.7665 74C105.603 74 112.766 66.8366 112.766 58C112.766 52.4984 109.99 47.6454 105.761 44.7659C100.48 53.3664 91.48 59.4374 81 60.739Z" fill="white"/>
</mask>
<g mask="url(#mask1_0_19)">
<path fill-rule="evenodd" clip-rule="evenodd" d="M101 58.5C101 62.6421 97.6421 66 93.5 66C89.3579 66 86 62.6421 86 58.5C86 57.1284 86.3682 55.8429 87.0111 54.7367C87.1303 56.0064 88.1991 57 89.5 57C90.8807 57 92 55.8807 92 54.5C92 53.1991 91.0064 52.1303 89.7367 52.0111C90.8429 51.3682 92.1284 51 93.5 51C97.6421 51 101 54.3579 101 58.5Z" fill="black"/>
</g>
<path d="M44.0051 44.7659C49.2861 53.3664 58.2865 59.4374 68.7665 60.739C67.4672 68.2706 60.9027 74 53 74C44.1634 74 37 66.8366 37 58C37 52.4984 39.7767 47.6454 44.0051 44.7659V44.7659Z" fill="white"/>
<mask id="mask2_0_19" style="mask-type:alpha" maskUnits="userSpaceOnUse" x="37" y="44" width="32" height="30">
<path d="M44.0051 44.7659C49.2861 53.3664 58.2865 59.4374 68.7665 60.739C67.4672 68.2706 60.9027 74 53 74C44.1634 74 37 66.8366 37 58C37 52.4984 39.7767 47.6454 44.0051 44.7659V44.7659Z" fill="white"/>
</mask>
<g mask="url(#mask2_0_19)">
<path fill-rule="evenodd" clip-rule="evenodd" d="M57 58.5C57 62.6421 53.6421 66 49.5 66C45.3579 66 42 62.6421 42 58.5C42 57.1284 42.3682 55.8429 43.0111 54.7367C43.1303 56.0064 44.1991 57 45.5 57C46.8807 57 48 55.8807 48 54.5C48 53.1991 47.0064 52.1303 45.7367 52.0111C46.8429 51.3682 48.1284 51 49.5 51C53.6421 51 57 54.3579 57 58.5Z" fill="black"/>
</g>
<defs>
<linearGradient id="paint0_linear_0_19" x1="12.1713" y1="4" x2="12.1713" y2="145.327" gradientUnits="userSpaceOnUse">
<stop stop-color="#3AA4E5"/>
<stop offset="0.999548" stop-color="#12FFBA"/>
</linearGradient>
</defs>
</svg>
