<svg width="150" height="150" viewBox="0 0 150 150" fill="none" xmlns="http://www.w3.org/2000/svg">
<path d="M38.4051 25.1967C51.2314 16.9082 64.1747 13.2215 77.2349 14.1364C90.2951 15.0514 101.011 17.8959 109.384 22.67C120.18 14.9074 131.719 14.1956 144 20.5347C132.109 21.2868 125.15 24.8191 123.123 31.1316C120.083 40.6004 159.858 61.2612 125.757 107.813C127.142 102.884 128.34 95.0471 125.945 92.406C125.269 102.094 122.82 109.389 118.599 114.292C119.823 108.851 117.947 108.159 112.971 112.217C111.597 116.135 112.867 126.72 112.812 127.516C117.146 128.49 124.443 129.001 125.802 137C124.189 135.747 118.785 134.446 109.591 133.099C109.872 123.552 107.643 117.681 102.905 115.485C77.4045 120.301 60.0238 114.329 55.1505 112.923C52.8317 114.566 50.8118 117.968 49.9569 130.217C41.9396 129.655 35.5027 130.481 32.562 131.516C34.9157 126.448 42.3016 124.468 47.5234 124.834C47.7723 121.267 48.0726 111.397 43.3797 109.022C38.6868 106.648 33.7001 102.11 31.8528 98.962C31.6919 101.268 33.0977 104.917 36.0701 109.909C23.4613 100.478 16.6779 89.3652 15.7198 76.5702C14.2827 57.3776 29.4055 45.7536 25.2106 35.9491C21.0157 26.1445 -2.46576 30.689 0.212141 28.5067C14.5287 20.5198 27.2597 19.4164 38.4051 25.1967Z" fill="url(#paint0_linear_0_11)"/>
<path d="M53.5655 106.471C57.1416 111.048 69.7578 103.89 79.9512 103.89C90.1445 103.89 94.0359 106.394 96.2937 105.142C98.5514 103.89 95.9816 96.4132 79.9512 91.8677C63.9207 87.3222 49.9894 101.894 53.5655 106.471Z" fill="black"/>
<path d="M84 103.922C82.7609 103.838 81.4027 103.786 79.9111 103.786C74.3829 103.786 68.1503 105.814 63 107C64.4005 103.542 69.1069 101 74.6973 101C78.4344 101 81.7764 102.136 84 103.922Z" fill="#C48CE1"/>
<path d="M58 96.3263C63.0465 92.374 70.9231 89.4763 79.382 91.8685C82.3683 92.7131 84.8892 93.6588 87 94.6469L82.1229 99.0308L78.6023 93.1433L75.6233 95.8875L71.7759 93.1433L68.9886 95.8875L64.8215 94.1934L63.5936 100L58 96.3263H58Z" fill="white"/>
<path d="M81 60.739C82.2992 68.2706 88.8638 74 96.7665 74C105.603 74 112.766 66.8366 112.766 58C112.766 52.4984 109.99 47.6454 105.761 44.7659C100.48 53.3664 91.48 59.4374 81 60.739Z" fill="white"/>
<mask id="mask0_0_11" style="mask-type:alpha" maskUnits="userSpaceOnUse" x="81" y="44" width="32" height="30">
<path d="M81 60.739C82.2992 68.2706 88.8638 74 96.7665 74C105.603 74 112.766 66.8366 112.766 58C112.766 52.4984 109.99 47.6454 105.761 44.7659C100.48 53.3664 91.48 59.4374 81 60.739Z" fill="white"/>
</mask>
<g mask="url(#mask0_0_11)">
<path fill-rule="evenodd" clip-rule="evenodd" d="M101 58.5C101 62.6421 97.6421 66 93.5 66C89.3579 66 86 62.6421 86 58.5C86 57.1284 86.3682 55.8429 87.0111 54.7367C87.1303 56.0064 88.1991 57 89.5 57C90.8807 57 92 55.8807 92 54.5C92 53.1991 91.0064 52.1303 89.7367 52.0111C90.8429 51.3682 92.1284 51 93.5 51C97.6421 51 101 54.3579 101 58.5Z" fill="black"/>
</g>
<path d="M44.0051 44.7659C49.2861 53.3664 58.2865 59.4374 68.7665 60.739C67.4672 68.2706 60.9027 74 53 74C44.1634 74 37 66.8366 37 58C37 52.4984 39.7767 47.6454 44.0051 44.7659V44.7659Z" fill="white"/>
<mask id="mask1_0_11" style="mask-type:alpha" maskUnits="userSpaceOnUse" x="37" y="44" width="32" height="30">
<path d="M44.0051 44.7659C49.2861 53.3664 58.2865 59.4374 68.7665 60.739C67.4672 68.2706 60.9027 74 53 74C44.1634 74 37 66.8366 37 58C37 52.4984 39.7767 47.6454 44.0051 44.7659V44.7659Z" fill="white"/>
</mask>
<g mask="url(#mask1_0_11)">
<path fill-rule="evenodd" clip-rule="evenodd" d="M57 58.5C57 62.6421 53.6421 66 49.5 66C45.3579 66 42 62.6421 42 58.5C42 57.1284 42.3682 55.8429 43.0111 54.7367C43.1303 56.0064 44.1991 57 45.5 57C46.8807 57 48 55.8807 48 54.5C48 53.1991 47.0064 52.1303 45.7367 52.0111C46.8429 51.3682 48.1284 51 49.5 51C53.6421 51 57 54.3579 57 58.5Z" fill="black"/>
</g>
<defs>
<linearGradient id="paint0_linear_0_11" x1="0.699061" y1="14" x2="0.699061" y2="135.806" gradientUnits="userSpaceOnUse">
<stop stop-color="#FF9400"/>
<stop offset="1" stop-color="#721EA2"/>
</linearGradient>
</defs>
</svg>
