<svg width="150" height="150" viewBox="0 0 150 150" fill="none" xmlns="http://www.w3.org/2000/svg">
<path d="M47.6758 133.458C45.7984 115.879 41.4696 103.04 34.6893 94.9418C24.519 82.7942 19.0633 64.7279 23.6297 52.0527C26.674 43.6026 30.0175 37.2221 33.6603 32.9112L32.1874 21.0361C32.0515 19.94 32.8299 18.9411 33.9261 18.8052C34.2952 18.7594 34.6697 18.8174 35.0076 18.9728L44.1801 23.1896C52.538 16.3965 63.2322 13 76.2627 13C89.2932 13 100.436 16.8076 109.692 24.4227L119.991 20.019C121.006 19.5847 122.182 20.056 122.616 21.0716C122.8 21.502 122.827 21.9832 122.693 22.4316L119.555 32.9112C130.321 54.6168 131.498 71.991 123.086 85.0339C110.467 104.598 103.189 100.499 99.7989 115.08C96.4089 129.661 102.447 136.091 99.7989 136.091C97.1512 136.091 94.5028 129.5 91.9966 129.5C89.4904 129.5 91.0022 138.723 86.2619 136.091C81.5217 133.458 84.8148 125.361 82.128 125.361C79.4413 125.361 79.3982 129.5 76.2627 129.5C73.1273 129.5 74.3669 123.59 70.6682 123.59C66.9695 123.59 67.0517 129.5 63.8543 129.5C60.6569 129.5 61.2632 123.59 57.9176 123.59C55.6871 123.59 52.2732 126.879 47.6758 133.458Z" fill="url(#paint0_linear_0_17)"/>
<path d="M58 104.445C61.3441 97.8231 68.1571 93.5166 75.6919 94.0435C82.8445 94.5436 88.7467 99.2663 91.3715 105.752C86.9257 104.36 81.9604 103.412 76.6919 103.043C69.9365 102.571 63.5421 103.112 58 104.445H58Z" fill="black"/>
<path d="M112.212 44.6147L79.2799 62.8696C82.0335 69.9677 88.9291 75 97 75C107.493 75 116 66.4934 116 56C116 51.7293 114.591 47.7877 112.212 44.6147V44.6147Z" fill="white"/>
<mask id="mask0_0_17" style="mask-type:alpha" maskUnits="userSpaceOnUse" x="79" y="44" width="37" height="31">
<path d="M112.212 44.6147L79.2799 62.8696C82.0335 69.9677 88.9291 75 97 75C107.493 75 116 66.4934 116 56C116 51.7293 114.591 47.7877 112.212 44.6147V44.6147Z" fill="white"/>
</mask>
<g mask="url(#mask0_0_17)">
<path d="M98 73C90.8203 73 85 67.1797 85 60C85 52.8203 90.8203 47 98 47C105.18 47 111 52.8203 111 60C111 67.1797 105.18 73 98 73Z" fill="black"/>
<path d="M89.8026 60.626C91.1761 61.5525 93.7918 60.0766 95.6448 57.3294C97.4978 54.5822 97.8865 51.6041 96.5129 50.6776C95.1393 49.7511 92.5236 51.227 90.6706 53.9742C88.8176 56.7214 88.429 59.6995 89.8026 60.626Z" fill="white"/>
</g>
<path d="M38.7876 44.6147L71.7201 62.8696C68.9665 69.9677 62.0709 75 54 75C43.5066 75 35 66.4934 35 56C35 51.7293 36.409 47.7877 38.7876 44.6147V44.6147Z" fill="white"/>
<mask id="mask1_0_17" style="mask-type:alpha" maskUnits="userSpaceOnUse" x="35" y="44" width="37" height="31">
<path d="M38.7876 44.6147L71.7201 62.8696C68.9665 69.9677 62.0709 75 54 75C43.5066 75 35 66.4934 35 56C35 51.7293 36.409 47.7877 38.7876 44.6147V44.6147Z" fill="white"/>
</mask>
<g mask="url(#mask1_0_17)">
<path d="M53 73C60.1797 73 66 67.1797 66 60C66 52.8203 60.1797 47 53 47C45.8203 47 40 52.8203 40 60C40 67.1797 45.8203 73 53 73Z" fill="black"/>
<path d="M46.4871 60.626C47.8607 61.5525 50.4764 60.0766 52.3294 57.3294C54.1824 54.5822 54.571 51.6041 53.1974 50.6776C51.8238 49.7511 49.2082 51.227 47.3552 53.9742C45.5022 56.7214 45.1135 59.6995 46.4871 60.626Z" fill="white"/>
</g>
<defs>
<linearGradient id="paint0_linear_0_17" x1="168.441" y1="98.9074" x2="88.6743" y2="-12.9765" gradientUnits="userSpaceOnUse">
<stop stop-color="#FFFF8C"/>
<stop offset="1" stop-color="#F15A24"/>
</linearGradient>
</defs>
</svg>
