<svg width="150" height="150" viewBox="0 0 150 150" fill="none" xmlns="http://www.w3.org/2000/svg">
<path d="M64.1459 18.4038C86.8301 12.2371 102.59 12.5469 111.426 19.3332C124.68 29.5125 103.796 12.7326 89.4746 24.4709C118.082 14.2046 148.019 50.4054 146.699 51.1794C145.379 51.9533 135.588 43.073 130.189 44.9341C139.894 51.1066 146.096 78.6762 144.093 81.0173C142.09 83.3584 140.566 70.9049 136.898 68.0635C140.107 75.2554 132.244 108.106 125.924 111.091C119.603 114.075 121.801 108.974 122.921 102.225C121.59 110.249 105.742 129.058 102.802 128.507C99.8627 127.956 105.945 119.682 107.169 112.302C104.096 120.709 95.6791 130.947 90.8233 132.784C87.5861 134.008 83.0781 130.989 77.2994 123.727C81.8999 133.352 81.195 137.601 75.1849 136.475C69.1748 135.348 62.6083 128.467 55.4854 115.832C60.3919 126.427 61.0941 131.397 57.5917 130.74C54.0894 130.084 47.8014 121.914 38.7278 106.23C47.3129 121.642 47.6823 126.872 39.8361 121.92C31.9899 116.967 27.1013 105.33 25.1703 87.0091C19.0224 101.341 15.2445 106.193 13.8363 101.564C12.4282 96.9347 14.6044 87.1047 20.3649 72.0738C14.1819 79.4521 10.4503 82.3952 9.1702 80.9032C7.89006 79.4111 11.2045 71.6402 19.1134 57.5905C9.51542 72.5533 5.3006 76.5128 6.46892 69.4691C7.63725 62.4254 12.933 51.9492 22.3561 38.0406C2.03804 52.5454 -1.41273 51.8986 12.0038 36.1001C25.4203 20.3016 42.801 14.4028 64.1459 18.4038Z" fill="url(#paint0_linear_0_21)"/>
<path d="M60.3127 102.5C60.3127 105.517 63.9934 103.754 66.9563 102.5C69.9192 101.247 78.6938 99.8056 83.4583 101.871C88.2227 103.936 88.6902 105.463 89.6987 104.307C90.7073 103.151 87.2639 97.9807 77.9817 96.2939C68.6995 94.6072 60.3127 99.4834 60.3127 102.5Z" fill="#FB8646"/>
<path fill-rule="evenodd" clip-rule="evenodd" d="M77.9817 96.2939C74.5161 95.6641 71.1753 95.9492 68.3492 96.7109L70.9207 98.9199L72.2027 96.2417L73.5615 98.3344L75.0567 96.2417L76.148 98.3344L78.1325 96.3217C78.0824 96.3124 78.0322 96.3031 77.9817 96.2939ZM68.143 96.7675C67.2296 97.0234 66.372 97.3289 65.5836 97.6687L67.607 98.9199L68.143 96.7675ZM78.2664 96.3471C79.6794 96.6182 80.9538 96.9702 82.0948 97.3758L80.0454 99.7583L78.2664 96.3471ZM84.7581 98.5299C83.9761 98.1214 83.0996 97.7346 82.1255 97.3867L83.0943 100.124L84.7581 98.5299Z" fill="white"/>
<path d="M97 74C105.284 74 112 67.2843 112 59C112 50.7157 105.284 44 97 44C88.7157 44 82 50.7157 82 59C82 67.2843 88.7157 74 97 74Z" fill="white"/>
<path d="M97 71C103.627 71 109 65.6274 109 59C109 52.3726 103.627 47 97 47C90.3726 47 85 52.3726 85 59C85 65.6274 90.3726 71 97 71Z" fill="url(#paint1_linear_0_21)"/>
<path fill-rule="evenodd" clip-rule="evenodd" d="M97 48.3085C93.4383 50.2947 91 54.3367 91 59C91 63.6633 93.4383 67.7053 97 69.6916C100.562 67.7053 103 63.6633 103 59C103 54.3367 100.562 50.2947 97 48.3085Z" fill="black"/>
<path d="M92.5 58C93.8807 58 95 56.8807 95 55.5C95 54.1193 93.8807 53 92.5 53C91.1193 53 90 54.1193 90 55.5C90 56.8807 91.1193 58 92.5 58Z" fill="white"/>
<path d="M53 74C61.2843 74 68 67.2843 68 59C68 50.7157 61.2843 44 53 44C44.7157 44 38 50.7157 38 59C38 67.2843 44.7157 74 53 74Z" fill="white"/>
<path d="M52.8899 68.7826C52.8899 68.7826 43.2175 64.7472 43.2175 57.3907C43.1972 54.313 45.5158 51.826 48.3731 51.826C50.3919 51.826 52.1506 53.0902 52.99 54.9244C53.8292 53.0902 55.588 51.8269 57.6069 51.8269C60.4642 51.8261 62.7826 54.313 62.7826 57.3899C62.7826 64.7066 52.8901 68.7826 52.8901 68.7826H52.8899Z" fill="#F34D4D"/>
<defs>
<linearGradient id="paint0_linear_0_21" x1="216.176" y1="113.702" x2="142.553" y2="-35.7422" gradientUnits="userSpaceOnUse">
<stop stop-color="#DD58A0"/>
<stop offset="1" stop-color="#4A24A4"/>
</linearGradient>
<linearGradient id="paint1_linear_0_21" x1="85.1165" y1="47" x2="85.1165" y2="70.767" gradientUnits="userSpaceOnUse">
<stop stop-color="#FF9400"/>
<stop offset="1" stop-color="#721EA2"/>
</linearGradient>
</defs>
</svg>
