<svg width="150" height="150" viewBox="0 0 150 150" fill="none" xmlns="http://www.w3.org/2000/svg">
<path d="M64.1459 18.4038C86.8301 12.2371 102.59 12.5469 111.426 19.3332C124.68 29.5125 103.796 12.7326 89.4746 24.4709C118.082 14.2046 148.019 50.4054 146.699 51.1794C145.379 51.9533 135.588 43.073 130.189 44.9341C139.894 51.1066 146.096 78.6762 144.093 81.0173C142.09 83.3584 140.566 70.9049 136.898 68.0635C140.107 75.2554 132.244 108.106 125.924 111.091C119.603 114.075 121.801 108.974 122.921 102.225C121.59 110.249 105.742 129.058 102.802 128.507C99.8627 127.956 105.945 119.682 107.169 112.302C104.096 120.709 95.6791 130.947 90.8233 132.784C87.5861 134.008 83.0781 130.989 77.2994 123.727C81.8999 133.352 81.195 137.601 75.1849 136.475C69.1748 135.348 62.6083 128.467 55.4854 115.832C60.3919 126.427 61.0941 131.397 57.5917 130.74C54.0894 130.084 47.8014 121.914 38.7278 106.23C47.3129 121.642 47.6823 126.872 39.8361 121.92C31.9899 116.967 27.1013 105.33 25.1703 87.0091C19.0224 101.341 15.2445 106.193 13.8363 101.564C12.4282 96.9347 14.6044 87.1047 20.3649 72.0738C14.1819 79.4521 10.4503 82.3952 9.1702 80.9032C7.89006 79.4111 11.2045 71.6402 19.1134 57.5905C9.51542 72.5533 5.3006 76.5128 6.46892 69.4691C7.63725 62.4254 12.933 51.9492 22.3561 38.0406C2.03804 52.5454 -1.41273 51.8986 12.0038 36.1001C25.4203 20.3016 42.801 14.4028 64.1459 18.4038Z" fill="url(#paint0_linear_0_13)"/>
<path fill-rule="evenodd" clip-rule="evenodd" d="M55 90C55 101.046 63.9543 110 75 110C86.0457 110 95 101.046 95 90H55Z" fill="black"/>
<path d="M89.0176 104.266C85.4086 107.812 80.4598 110 75 110C69.8283 110 65.115 108.037 61.5647 104.816C63.6731 101.878 66.8926 100 70.5 100C72.2919 100 73.9881 100.463 75.5 101.29C77.0118 100.463 78.708 100 80.5 100C83.8769 100 86.9138 101.645 89.0176 104.266Z" fill="#F34D4D"/>
<path d="M82.0311 73C80.1165 70.1398 79 66.7003 79 63C79 53.0589 87.0589 45 97 45C106.941 45 115 53.0589 115 63C115 66.7003 113.883 70.1398 111.969 73H82.0311Z" fill="white"/>
<path fill-rule="evenodd" clip-rule="evenodd" d="M107 60C107 65.5228 102.523 70 97 70C91.4772 70 87 65.5228 87 60C87 57.7305 87.756 55.6377 89.0299 53.9595C89.2549 55.6753 90.7227 57 92.5 57C94.433 57 96 55.433 96 53.5C96 52.1634 95.2507 51.0017 94.1493 50.4122C95.0527 50.144 96.0095 50 97 50C102.523 50 107 54.4772 107 60Z" fill="black"/>
<path d="M38.0311 73C36.1165 70.1398 35 66.7003 35 63C35 53.0589 43.0589 45 53 45C62.9411 45 71 53.0589 71 63C71 66.7003 69.8835 70.1398 67.9689 73H38.0311Z" fill="white"/>
<path fill-rule="evenodd" clip-rule="evenodd" d="M63 60C63 65.5228 58.5228 70 53 70C47.4772 70 43 65.5228 43 60C43 57.7305 43.756 55.6377 45.0299 53.9595C45.2549 55.6753 46.7227 57 48.5 57C50.433 57 52 55.433 52 53.5C52 52.1634 51.2507 51.0017 50.1493 50.4122C51.0527 50.144 52.0095 50 53 50C58.5228 50 63 54.4772 63 60Z" fill="black"/>
<defs>
<linearGradient id="paint0_linear_0_13" x1="5.43103" y1="16.4592" x2="5.43103" y2="136.652" gradientUnits="userSpaceOnUse">
<stop stop-color="#D0FFA0"/>
<stop offset="1" stop-color="#4AD240"/>
</linearGradient>
</defs>
</svg>
