<svg width="150" height="150" viewBox="0 0 150 150" fill="none" xmlns="http://www.w3.org/2000/svg">
<path d="M122.196 54.9223C122.196 15.6938 89.1561 -5.83463 55.0469 10.5161C20.9376 26.8668 23.6679 70.1642 36.6211 100.553C49.5743 130.942 22.1819 128.623 12.8284 128.623C3.47491 128.623 4.16344 144.107 23.9007 140.974C43.6379 137.841 49.038 129.127 57.9353 132.497C66.8327 135.866 82.4121 149.111 92.8906 145.042C103.369 140.974 84.9083 138.399 84.9083 132.497C84.9083 126.595 92.354 126.515 103.369 132.497C114.384 138.479 136.105 146.854 141.705 136.44C147.306 126.027 116.195 132.497 110.051 118.664C103.906 104.83 122.196 94.1509 122.196 54.9223Z" fill="url(#paint0_linear_0_7)"/>
<path d="M49 99.5C52.3807 92.2713 62.9036 87 75.3612 87C87.8188 87 98.3417 92.2713 101.722 99.5C98.3417 106.729 87.8188 112 75.3612 112C62.9036 112 52.3807 106.729 49 99.5H49Z" fill="black"/>
<mask id="mask0_0_7" style="mask-type:alpha" maskUnits="userSpaceOnUse" x="49" y="87" width="53" height="25">
<path d="M49 99.5C52.3807 92.2713 62.9036 87 75.3612 87C87.8188 87 98.3417 92.2713 101.722 99.5C98.3417 106.729 87.8188 112 75.3612 112C62.9036 112 52.3807 106.729 49 99.5H49Z" fill="white"/>
</mask>
<g mask="url(#mask0_0_7)">
<path fill-rule="evenodd" clip-rule="evenodd" d="M75.5 134.859C73.2937 136.221 70.7322 137 68 137C59.7157 137 53 129.837 53 121C53 112.163 59.7157 105 68 105C70.7322 105 73.2937 105.779 75.5 107.141C77.7063 105.779 80.2678 105 83 105C91.2843 105 98 112.163 98 121C98 129.837 91.2843 137 83 137C80.2678 137 77.7063 136.221 75.5 134.859Z" fill="#C48CE1"/>
<rect x="55" y="81" width="5" height="14" rx="2" fill="white"/>
<rect x="62" y="85" width="5" height="8" rx="2" fill="white"/>
<rect x="69" y="84" width="5" height="8" rx="2" fill="white"/>
<rect x="76" y="84" width="5" height="8" rx="2" fill="white"/>
<rect x="83" y="85" width="5" height="8" rx="2" fill="white"/>
<rect x="90" y="81" width="5" height="14" rx="2" fill="white"/>
</g>
<path d="M75 76C84.3888 76 92 68.3888 92 59C92 49.6112 84.3888 42 75 42C65.6112 42 58 49.6112 58 59C58 68.3888 65.6112 76 75 76Z" fill="white"/>
<path d="M75 71C81.6274 71 87 65.6274 87 59C87 52.3726 81.6274 47 75 47C68.3726 47 63 52.3726 63 59C63 65.6274 68.3726 71 75 71Z" fill="url(#paint1_linear_0_7)"/>
<path d="M75 67C79.4183 67 83 63.4183 83 59C83 54.5817 79.4183 51 75 51C70.5817 51 67 54.5817 67 59C67 63.4183 70.5817 67 75 67Z" fill="black"/>
<path d="M70.9916 60.7261C72.0479 61.0491 73.3623 59.8124 73.9275 57.9638C74.4926 56.1153 74.0945 54.355 73.0382 54.032C71.9819 53.7091 70.6674 54.9458 70.1022 56.7943C69.5371 58.6429 69.9353 60.4032 70.9916 60.7261Z" fill="white"/>
<defs>
<linearGradient id="paint0_linear_0_7" x1="208.229" y1="119.464" x2="114.436" y2="-37.8132" gradientUnits="userSpaceOnUse">
<stop stop-color="#DD58A0"/>
<stop offset="1" stop-color="#4A24A4"/>
</linearGradient>
<linearGradient id="paint1_linear_0_7" x1="63.0325" y1="47" x2="63.0325" y2="70.935" gradientUnits="userSpaceOnUse">
<stop stop-color="#3AA4E5"/>
<stop offset="0.999548" stop-color="#12FFBA"/>
</linearGradient>
</defs>
</svg>
