<svg width="150" height="150" viewBox="0 0 150 150" fill="none" xmlns="http://www.w3.org/2000/svg">
<path d="M70.3134 30.9557C65.3592 29.5461 64.318 5.2181 58.8998 6.01936C53.4815 6.82062 58.5414 32.7238 49.4583 34.0397C40.3753 35.3557 35.0624 17.5018 29.2333 21.9774C23.4042 26.453 38.2871 33.584 33.7368 43.5892C29.1866 53.5945 4.46899 45.83 5.00871 50.4211C5.54842 55.0122 31.549 53.7745 30.537 60.7821C29.5251 67.7896 11.7185 70.2141 9.38666 74.6274C7.05483 79.0406 23.5315 75.6635 23.1627 85.6555C22.794 95.6475 8.41417 98.8611 10.9794 104.196C13.5447 109.531 32.3234 98.667 33.7368 107.647C35.1502 116.626 20.7728 121.648 23.1627 124.918C25.5527 128.187 32.6618 118.376 43.5109 121.017C54.36 123.658 46.0494 135.183 49.4583 136.605C52.8673 138.028 55.5123 128.928 61.206 127.44C66.8997 125.951 64.7761 143.255 68.624 143.255C72.4719 143.255 68.1881 126.548 76.3763 127.44C84.5645 128.331 84.5039 140.642 88.7558 139.115C93.0077 137.588 87.822 123.35 94.2599 121.017C100.698 118.685 107.489 131.379 111.599 129.254C115.709 127.129 104.871 117.1 111.599 112.053C118.327 107.006 128.048 119.264 131.372 117.047C134.696 114.83 124.793 106.219 126.401 102.18C128.009 98.1401 146.157 106.584 143.422 98.6678C140.687 90.7518 124.289 89.8195 122.584 83.9647C120.879 78.1099 138.885 82.1443 143.422 76.2895C147.959 70.4346 126.401 69.5418 126.401 65.076C126.401 60.6102 136.947 58.2891 136.947 54.1375C136.947 49.986 116.624 56.7965 114.798 50.4211C112.971 44.0458 130.019 40.128 128.72 35.9578C127.42 31.7877 115.7 38.4679 109.194 32.4372C102.687 26.4064 111.063 10.5323 104.6 10.9919C98.1364 11.4516 96.2294 29.4432 88.7558 29.4432C81.2822 29.4432 80.0823 11.6912 76.3763 10.9919C72.6703 10.2927 75.2675 32.3653 70.3134 30.9557Z" fill="url(#paint0_linear_0_15)"/>
<path d="M59 100.79L66 94L66.2053 104C66.2053 104 65.0036 103.725 62.4609 102.741C59.9183 101.757 59 100.79 59 100.79Z" fill="white"/>
<path d="M92 101.273L84 94L84.1971 104L92 101.273Z" fill="white"/>
<path d="M94 98C90.6259 102.139 83.3864 105 75 105C66.6136 105 59.3741 102.139 56 98" stroke="black" stroke-width="2" stroke-linecap="round"/>
<path d="M81 60.739C82.2992 68.2706 88.8638 74 96.7665 74C105.603 74 112.766 66.8366 112.766 58C112.766 52.4984 109.99 47.6454 105.761 44.7659C100.48 53.3664 91.48 59.4374 81 60.739Z" fill="white"/>
<mask id="mask0_0_15" style="mask-type:alpha" maskUnits="userSpaceOnUse" x="81" y="44" width="32" height="30">
<path d="M81 60.739C82.2992 68.2706 88.8638 74 96.7665 74C105.603 74 112.766 66.8366 112.766 58C112.766 52.4984 109.99 47.6454 105.761 44.7659C100.48 53.3664 91.48 59.4374 81 60.739Z" fill="white"/>
</mask>
<g mask="url(#mask0_0_15)">
<path fill-rule="evenodd" clip-rule="evenodd" d="M101 58.5C101 62.6421 97.6421 66 93.5 66C89.3579 66 86 62.6421 86 58.5C86 57.1284 86.3682 55.8429 87.0111 54.7367C87.1303 56.0064 88.1991 57 89.5 57C90.8807 57 92 55.8807 92 54.5C92 53.1991 91.0064 52.1303 89.7367 52.0111C90.8429 51.3682 92.1284 51 93.5 51C97.6421 51 101 54.3579 101 58.5Z" fill="black"/>
</g>
<path d="M44.0051 44.7659C49.2861 53.3664 58.2865 59.4374 68.7665 60.739C67.4672 68.2706 60.9027 74 53 74C44.1634 74 37 66.8366 37 58C37 52.4984 39.7767 47.6454 44.0051 44.7659V44.7659Z" fill="white"/>
<mask id="mask1_0_15" style="mask-type:alpha" maskUnits="userSpaceOnUse" x="37" y="44" width="32" height="30">
<path d="M44.0051 44.7659C49.2861 53.3664 58.2865 59.4374 68.7665 60.739C67.4672 68.2706 60.9027 74 53 74C44.1634 74 37 66.8366 37 58C37 52.4984 39.7767 47.6454 44.0051 44.7659V44.7659Z" fill="white"/>
</mask>
<g mask="url(#mask1_0_15)">
<path fill-rule="evenodd" clip-rule="evenodd" d="M57 58.5C57 62.6421 53.6421 66 49.5 66C45.3579 66 42 62.6421 42 58.5C42 57.1284 42.3682 55.8429 43.0111 54.7367C43.1303 56.0064 44.1991 57 45.5 57C46.8807 57 48 55.8807 48 54.5C48 53.1991 47.0064 52.1303 45.7367 52.0111C46.8429 51.3682 48.1284 51 49.5 51C53.6421 51 57 54.3579 57 58.5Z" fill="black"/>
</g>
<defs>
<linearGradient id="paint0_linear_0_15" x1="176.891" y1="110.758" x2="112.414" y2="-22.1517" gradientUnits="userSpaceOnUse">
<stop stop-color="#2B00B6"/>
<stop offset="1" stop-color="#51D1EC"/>
</linearGradient>
</defs>
</svg>
