<svg width="150" height="150" viewBox="0 0 150 150" fill="none" xmlns="http://www.w3.org/2000/svg">
<path d="M80.8618 20.7077C77.1068 22.1016 84.0786 16.3095 92.4526 16.3095C105.503 16.3095 87.0197 5.35841 66.9962 12.3111C46.9726 19.2637 18.7686 39.4847 11.0801 62.1459C3.3916 84.807 24.1217 55.605 24.1217 55.605C24.1217 55.605 16.8338 75.3203 16.8338 82.709C16.8338 90.0976 28.9771 73.0151 28.9771 73.0151C28.9771 73.0151 20.157 97.7384 21.1109 107.918C22.0648 118.098 31.6144 94.2307 31.6144 94.2307C31.6144 94.2307 23.7455 134.288 28.9771 131.336C34.2087 128.384 37.3847 120.101 37.3847 120.101C37.3847 120.101 37.3243 127.329 41.5355 134.505C45.7467 141.681 48.7474 125.646 48.7474 125.646C48.7474 125.646 60.7254 142.258 66.9962 140.025C73.2669 137.792 69.702 123.846 69.702 123.846C69.702 123.846 81.8674 143.261 87.4167 138.883C92.966 134.505 91.6387 128.321 91.6387 128.321C91.6387 128.321 101.374 142.302 103.676 136.819C105.977 131.336 100.367 112.86 100.367 112.86C100.367 112.86 118.118 140.725 120.813 128.321C123.508 115.917 110.464 95.5686 110.464 95.5686C110.464 95.5686 129.673 113.211 132.125 107.918C134.577 102.625 120.813 85.2094 120.813 85.2094C120.813 85.2094 140.831 101.624 137.845 86.6918C134.859 71.7592 127.444 63.4253 127.444 63.4253C127.444 63.4253 142.397 76.3134 140.121 67.3583C137.845 58.4031 124.747 43.5098 118.624 40.9652C112.501 38.4206 138.497 51.3372 136.975 44.8789C135.453 38.4206 115.398 33.4364 111.088 27.3142C109.216 24.654 118.958 28.7089 124.961 29.4613C130.964 30.2137 127.301 25.8895 116.042 20.7077C104.783 15.5259 88.1982 17.9843 80.8618 20.7077Z" fill="url(#paint0_linear_0_3)"/>
<path d="M55 90H95C95 101.046 86.0457 110 75 110C63.9543 110 55 101.046 55 90Z" fill="black"/>
<mask id="mask0_0_3" style="mask-type:alpha" maskUnits="userSpaceOnUse" x="55" y="90" width="40" height="20">
<path d="M55 90H95C95 101.046 86.0457 110 75 110C63.9543 110 55 101.046 55 90Z" fill="white"/>
</mask>
<g mask="url(#mask0_0_3)">
<path d="M76.5 122C85.6127 122 93 117.971 93 113C93 108.029 85.6127 104 76.5 104C67.3873 104 60 108.029 60 113C60 117.971 67.3873 122 76.5 122Z" fill="#F34D4D"/>
<rect x="67" y="90" width="7" height="10" fill="white"/>
<rect x="76" y="90" width="7" height="10" fill="white"/>
</g>
<path d="M79 58C90.5291 58 100.588 51.7064 105.929 42.3673C111.348 45.4694 115 51.3083 115 58C115 67.9412 106.941 76 97 76C87.0589 76 79 67.9412 79 58Z" fill="white"/>
<path d="M90.437 62.56C90.9637 63.4235 91.9145 64 93 64C94.6569 64 96 62.6569 96 61C96 59.9145 95.4235 58.9637 94.56 58.437C95.3198 58.1544 96.1418 58 97 58C100.866 58 104 61.134 104 65C104 68.866 100.866 72 97 72C93.134 72 90 68.866 90 65C90 64.1418 90.1544 63.3198 90.437 62.56Z" fill="black"/>
<path d="M35 58C46.5291 58 56.5882 51.7064 61.9291 42.3673C67.3484 45.4694 71 51.3083 71 58C71 67.9412 62.9411 76 53 76C43.0589 76 35 67.9412 35 58Z" fill="white"/>
<path d="M46.437 62.56C46.9637 63.4235 47.9145 64 49 64C50.6569 64 52 62.6569 52 61C52 59.9145 51.4235 58.9637 50.56 58.437C51.3198 58.1544 52.1418 58 53 58C56.866 58 60 61.134 60 65C60 68.866 56.866 72 53 72C49.134 72 46 68.866 46 65C46 64.1418 46.1544 63.3198 46.437 62.56Z" fill="black"/>
<defs>
<linearGradient id="paint0_linear_0_3" x1="9" y1="10" x2="9" y2="140.29" gradientUnits="userSpaceOnUse">
<stop stop-color="#9EEF5D"/>
<stop offset="1" stop-color="#0AC2A7"/>
</linearGradient>
</defs>
</svg>
