<svg width="150" height="150" viewBox="0 0 150 150" fill="none" xmlns="http://www.w3.org/2000/svg">
<path d="M115.036 58.9714L110.624 136.668L75.1236 128.885L39.6236 136.668L35.2102 58.9549C34.8107 58.9848 34.4071 59 34 59C25.1634 59 18 51.8366 18 43H35.1257C38.1919 25.9975 54.9322 13 75.1236 13C95.3149 13 112.055 25.9975 115.121 43H132C132 51.8366 124.837 59 116 59C115.676 59 115.355 58.9904 115.036 58.9714Z" fill="url(#paint0_linear_0_5)"/>
<path d="M55 95H95C95 106.046 55 106.046 55 95Z" fill="black"/>
<rect x="67" y="95" width="7" height="10" fill="white"/>
<rect x="76" y="95" width="7" height="10" fill="white"/>
<path d="M75.5 71C81.8513 71 87 65.8513 87 59.5C87 53.1487 81.8513 48 75.5 48C69.1487 48 64 53.1487 64 59.5C64 65.8513 69.1487 71 75.5 71Z" fill="white"/>
<path fill-rule="evenodd" clip-rule="evenodd" d="M84.6197 59.5204C84.6197 64.5458 80.5458 68.6197 75.5204 68.6197C70.495 68.6197 66.4211 64.5458 66.4211 59.5204C66.4211 57.826 66.8842 56.2398 67.6907 54.8814C68.2048 55.7725 69.1673 56.3723 70.27 56.3723C71.9134 56.3723 73.2456 55.04 73.2456 53.3967C73.2456 52.457 72.8101 51.619 72.1298 51.0737C73.1777 50.6527 74.322 50.421 75.5204 50.421C80.5458 50.421 84.6197 54.4949 84.6197 59.5204Z" fill="black"/>
<defs>
<linearGradient id="paint0_linear_0_5" x1="178.408" y1="113.839" x2="102.465" y2="-17.0896" gradientUnits="userSpaceOnUse">
<stop stop-color="#FFFF5A"/>
<stop offset="1" stop-color="#5F239E"/>
</linearGradient>
</defs>
</svg>
