<svg width="150" height="150" viewBox="0 0 150 150" fill="none" xmlns="http://www.w3.org/2000/svg">
<path d="M101.589 135.177C98.498 143.26 90.6693 149 81.5 149C69.6259 149 60 139.374 60 127.5C60 127.328 60.002 127.156 60.0061 126.984C56.1069 132.442 49.7189 136 42.5 136C30.6259 136 21 126.374 21 114.5C21 110.578 22.0502 106.901 23.8848 103.735C16.8378 100.206 12 92.9179 12 84.5C12 78.4103 14.5318 72.9119 18.6003 69C14.5318 65.0881 12 59.5897 12 53.5C12 41.6259 21.6259 32 33.5 32C33.5701 32 33.6402 32.0003 33.7102 32.001C33.2468 30.2452 33 28.4014 33 26.5C33 14.6259 42.6259 5 54.5 5C58.5478 5 62.3344 6.11862 65.5674 8.06359C69.501 3.72493 75.1823 1 81.5 1C93.2767 1 102.842 10.4686 102.998 22.2083C105.863 20.7944 109.089 20 112.5 20C124.374 20 134 29.6259 134 41.5C134 47.3934 131.629 52.733 127.788 56.6168C134.468 60.2641 139 67.3529 139 75.5C139 86.5909 130.602 95.7203 119.818 96.8765C125.37 100.764 129 107.208 129 114.5C129 126.374 119.374 136 107.5 136C105.45 136 103.467 135.713 101.589 135.177Z" fill="url(#paint0_linear_0_9)"/>
<path d="M75.5 107C88.4787 107 99 101.968 99 97.8999C99 93.8314 88.4787 93.9999 75.5 93.9999C62.5213 93.9999 52 93.8314 52 97.8999C52 101.968 62.5213 107 75.5 107Z" fill="black"/>
<path d="M76 106C80.9706 106 85 103.761 85 101C85 98.2386 80.9706 98 76 98C71.0294 98 67 98.2386 67 101C67 103.761 71.0294 106 76 106Z" fill="#C48CE1"/>
<path d="M79 58C90.5291 58 100.588 51.7064 105.929 42.3673C111.348 45.4694 115 51.3083 115 58C115 67.9412 106.941 76 97 76C87.0589 76 79 67.9412 79 58Z" fill="white"/>
<path d="M90.437 62.56C90.9637 63.4235 91.9145 64 93 64C94.6569 64 96 62.6569 96 61C96 59.9145 95.4235 58.9637 94.56 58.437C95.3198 58.1544 96.1418 58 97 58C100.866 58 104 61.134 104 65C104 68.866 100.866 72 97 72C93.134 72 90 68.866 90 65C90 64.1418 90.1544 63.3198 90.437 62.56Z" fill="black"/>
<path d="M39 62.5C39 54.4919 45.4919 48 53.5 48C61.5081 48 68 54.4919 68 62.5C68 65.1572 67.2852 67.6475 66.0375 69.7891C62.2325 68 57.983 67 53.5 67C49.017 67 44.7675 68 40.9625 69.7891C39.7148 67.6475 39 65.1572 39 62.5Z" fill="white"/>
<path d="M53.5 58C54.8807 58 56 56.8807 56 55.5C56 54.6171 55.5423 53.841 54.8512 53.3962C55.5183 53.1403 56.2428 53 57 53C60.3137 53 63 55.6863 63 59C63 62.3137 60.3137 65 57 65C53.6863 65 51 62.3137 51 59C51 58.2428 51.1403 57.5183 51.3962 56.8512C51.841 57.5423 52.6171 58 53.5 58Z" fill="black"/>
<defs>
<linearGradient id="paint0_linear_0_9" x1="200.778" y1="121.308" x2="97.261" y2="-33.6246" gradientUnits="userSpaceOnUse">
<stop stop-color="#DD58A0"/>
<stop offset="1" stop-color="#4A24A4"/>
</linearGradient>
</defs>
</svg>
