<svg width="80" height="80" viewBox="0 0 80 80" fill="none" xmlns="http://www.w3.org/2000/svg">
<mask id="path-2-inside-1_2_4434" fill="white">
<path fill-rule="evenodd" clip-rule="evenodd" d="M39.9108 24.3274C39.8598 24.2306 39.8087 24.1347 39.7576 24.0399C33.2788 12.0162 20.8839 6.68778 12.0729 12.1384C3.26184 17.5891 1.37118 31.7548 7.84999 43.7784C13.6225 54.4913 30.1448 71.1231 39.9107 70.7666C49.6766 71.1232 66.199 54.4914 71.9716 43.7784C78.4504 31.7548 76.5597 17.5891 67.7487 12.1384C58.9376 6.68778 46.5427 12.0162 40.0639 24.0399C40.0128 24.1347 39.9618 24.2306 39.9108 24.3274Z"/>
</mask>
<path fill-rule="evenodd" clip-rule="evenodd" d="M39.9108 24.3274C39.8598 24.2306 39.8087 24.1347 39.7576 24.0399C33.2788 12.0162 20.8839 6.68778 12.0729 12.1384C3.26184 17.5891 1.37118 31.7548 7.84999 43.7784C13.6225 54.4913 30.1448 71.1231 39.9107 70.7666C49.6766 71.1232 66.199 54.4914 71.9716 43.7784C78.4504 31.7548 76.5597 17.5891 67.7487 12.1384C58.9376 6.68778 46.5427 12.0162 40.0639 24.0399C40.0128 24.1347 39.9618 24.2306 39.9108 24.3274Z" fill="white"/>
<path d="M39.7576 24.0399L37.3258 25.3502L37.3258 25.3503L39.7576 24.0399ZM39.9108 24.3274L37.4666 25.6146L39.9108 30.2555L42.3549 25.6146L39.9108 24.3274ZM12.0729 12.1384L13.5261 14.4876L12.0729 12.1384ZM7.84999 43.7784L10.2818 42.4681L7.84999 43.7784ZM39.9107 70.7666L40.0115 68.0061L39.9108 68.0024L39.81 68.0061L39.9107 70.7666ZM71.9716 43.7784L74.4034 45.0888L71.9716 43.7784ZM67.7487 12.1384L69.2019 9.78921L67.7487 12.1384ZM40.0639 24.0399L42.4957 25.3503L42.4957 25.3502L40.0639 24.0399ZM37.3258 25.3503C37.3727 25.4372 37.4196 25.5253 37.4666 25.6146L42.3549 23.0402C42.2999 22.9358 42.2448 22.8322 42.1894 22.7295L37.3258 25.3503ZM13.5261 14.4876C17.0216 12.3253 21.3487 12.204 25.6989 14.0741C30.0677 15.9523 34.3447 19.8177 37.3258 25.3502L42.1894 22.7295C38.6918 16.2384 33.5319 11.4278 27.8808 8.99849C22.2111 6.56111 15.9353 6.50088 10.6196 9.78921L13.5261 14.4876ZM10.2818 42.4681C7.30178 36.9376 6.28318 30.9738 6.96584 25.859C7.65012 20.732 9.99474 16.6722 13.5261 14.4876L10.6196 9.78921C5.33999 13.0553 2.33375 18.8036 1.48964 25.1281C0.643917 31.4647 1.91939 38.5956 5.41818 45.0888L10.2818 42.4681ZM39.81 68.0061C38.1072 68.0682 35.7726 67.3713 32.9363 65.7928C30.1571 64.2462 27.1642 62.0041 24.2283 59.3681C18.3308 54.073 12.9822 47.4796 10.2818 42.4681L5.41818 45.0888C8.49031 50.7902 14.2892 57.8691 20.5374 63.479C23.6744 66.2955 27.0039 68.8141 30.2497 70.6204C33.4384 72.3949 36.8313 73.6432 40.0115 73.5271L39.81 68.0061ZM39.8099 73.5271C42.9901 73.6433 46.383 72.395 49.5717 70.6204C52.8176 68.8141 56.1471 66.2956 59.2841 63.4791C65.5324 57.8691 71.3312 50.7902 74.4034 45.0888L69.5398 42.4681C66.8393 47.4796 61.4907 54.073 55.5932 59.3681C52.6573 62.0041 49.6644 64.2462 46.8852 65.7929C44.0489 67.3713 41.7143 68.0682 40.0115 68.0061L39.8099 73.5271ZM74.4034 45.0888C77.9022 38.5956 79.1776 31.4647 78.3319 25.1281C77.4878 18.8036 74.4816 13.0553 69.2019 9.78921L66.2954 14.4876C69.8268 16.6722 72.1714 20.732 72.8557 25.859C73.5384 30.9738 72.5198 36.9376 69.5398 42.4681L74.4034 45.0888ZM69.2019 9.78921C63.8863 6.50088 57.6104 6.56111 51.9407 8.99849C46.2897 11.4278 41.1298 16.2384 37.6321 22.7295L42.4957 25.3502C45.4769 19.8177 49.7538 15.9523 54.1227 14.0741C58.4729 12.204 62.8 12.3253 66.2954 14.4876L69.2019 9.78921ZM37.6321 22.7295C37.5768 22.8323 37.5216 22.9359 37.4666 23.0402L42.3549 25.6146C42.402 25.5253 42.4489 25.4372 42.4957 25.3503L37.6321 22.7295Z" fill="black" mask="url(#path-2-inside-1_2_4434)"/>
</svg>
