<svg width="112" height="112" viewBox="0 0 112 112" fill="none" xmlns="http://www.w3.org/2000/svg">
<g clip-path="url(#clip0_2_3152)">
<path d="M68.0812 76.8685C59.5343 85.4154 45.0593 85.0197 35.7456 75.7059C26.4318 66.3922 26.0361 51.9172 34.583 43.3703C38.9702 38.9831 48.8564 32.9586 58.9031 29.2542C63.9121 27.4072 68.8654 26.1737 73.1136 25.981C77.3922 25.7869 80.702 26.6553 82.7491 28.7024C84.7962 30.7495 85.6646 34.0593 85.4705 38.3379C85.2778 42.5861 84.0443 47.5393 82.1973 52.5484C78.4929 62.5951 72.4684 72.4813 68.0812 76.8685Z" fill="white" stroke="black" stroke-width="2.76238"/>
<rect x="82.8815" y="26.8816" width="2.38743" height="78.7851" rx="1.19371" transform="rotate(45 82.8815 26.8816)" fill="black"/>
<rect x="67.8253" y="25.7513" width="2.57873" height="23.1996" rx="1.28936" transform="rotate(15 67.8253 25.7513)" fill="black"/>
<rect x="54.0549" y="30.1805" width="2.57873" height="32.2335" rx="1.28936" transform="rotate(10.0778 54.0549 30.1805)" fill="black"/>
<rect x="42.3145" y="36.1331" width="2.57873" height="39.3827" rx="1.28936" transform="rotate(10.0778 42.3145 36.1331)" fill="black"/>
<rect width="2.57873" height="23.8229" rx="1.28936" transform="matrix(-0.258819 -0.965926 -0.965926 0.258819 86.3928 43.5555)" fill="black"/>
<rect width="2.57873" height="31.0462" rx="1.28936" transform="matrix(-0.174985 -0.984571 -0.984571 0.174985 80.193 57.695)" fill="black"/>
<rect width="2.57873" height="39.3827" rx="1.28936" transform="matrix(-0.174985 -0.984571 -0.984571 0.174985 75.4091 69.2281)" fill="black"/>
</g>
<path d="M32 32H80V0H32V32ZM80 32V80H112V32H80ZM80 80H32V112H80V80ZM32 80V32H0V80H32ZM32 80H32H0C0 97.6731 14.3269 112 32 112V80ZM80 80V112C97.6731 112 112 97.6731 112 80H80ZM80 32H112C112 14.3269 97.6731 0 80 0V32ZM32 0C14.3269 0 0 14.3269 0 32H32V32V0Z" fill="white" fill-opacity="0.3"/>
<defs>
<clipPath id="clip0_2_3152">
<path d="M16 32C16 23.1634 23.1634 16 32 16H80C88.8366 16 96 23.1634 96 32V80C96 88.8366 88.8366 96 80 96H32C23.1634 96 16 88.8366 16 80V32Z" fill="white"/>
</clipPath>
</defs>
</svg>
